<?xml version="1.0" encoding="UTF-8" ?>
<!DOCTYPE svg PUBLIC "-//W3C//DTD SVG 1.1//EN" "http://www.w3.org/Graphics/SVG/1.1/DTD/svg11.dtd">
<svg width="449pt" height="449pt" viewBox="0 0 449 449" version="1.1" xmlns="http://www.w3.org/2000/svg">
<path fill="#000001" opacity="1.00" d=" M 146.33 12.72 C 197.96 12.70 249.60 12.59 301.23 12.78 C 298.30 19.59 295.33 26.40 292.68 33.33 C 246.53 33.53 200.37 33.51 154.23 33.34 C 151.72 26.42 148.61 19.73 146.33 12.72 Z" />
<path fill="#000001" opacity="1.00" d=" M 18.37 129.34 C 55.08 92.78 91.69 56.13 128.28 19.45 C 130.98 26.34 133.69 33.22 136.43 40.09 C 135.45 41.25 134.47 42.39 133.44 43.50 C 105.76 71.11 78.13 98.79 50.47 126.43 C 46.62 130.20 42.99 134.20 38.93 137.74 C 31.98 135.16 25.28 132.00 18.37 129.34 Z" />
<path fill="#000001" opacity="1.00" d=" M 317.86 19.14 C 334.59 35.46 350.97 52.15 367.56 68.62 C 362.50 73.17 357.91 78.20 352.93 82.83 C 338.38 68.48 324.08 53.87 309.49 39.56 C 312.07 32.66 315.15 25.98 317.86 19.14 Z" />
<path fill="#000001" opacity="1.00" d=" M 231.59 46.71 C 250.14 46.76 268.69 46.65 287.24 46.80 C 284.15 53.02 281.95 59.65 278.82 65.85 C 277.96 67.69 275.97 68.39 274.06 68.22 C 259.92 68.18 245.79 68.23 231.66 68.17 C 231.90 61.00 230.16 53.82 231.59 46.71 Z" />
<path fill="#000001" opacity="1.00" d=" M 160.34 46.85 C 178.95 46.65 197.56 46.66 216.17 46.80 C 216.19 53.47 216.52 60.17 216.06 66.83 C 215.02 68.67 212.78 68.09 211.05 68.23 C 197.34 68.14 183.62 68.25 169.91 68.19 C 166.08 61.39 163.28 54.06 160.34 46.85 Z" />
<path fill="#000001" opacity="1.00" d=" M 304.01 53.24 C 317.34 66.33 330.52 79.57 343.70 92.82 C 338.83 97.75 333.78 102.51 328.98 107.51 C 322.74 101.59 316.81 95.35 310.68 89.32 C 305.97 84.35 300.75 79.89 296.28 74.70 C 298.34 67.37 301.75 60.51 304.01 53.24 Z" />
<path fill="#000001" opacity="1.00" d=" M 115.17 81.19 C 123.90 72.34 133.09 63.92 141.47 54.71 C 145.30 61.04 147.06 68.35 150.28 74.98 C 125.01 100.60 99.38 125.90 74.03 151.44 C 67.09 148.63 60.31 145.42 53.24 142.95 C 73.82 122.30 94.44 101.69 115.17 81.19 Z" />
<path fill="#000001" opacity="1.00" d=" M 364.62 94.41 C 369.21 89.20 373.97 84.14 378.90 79.25 C 395.43 95.85 411.93 112.48 428.62 128.93 C 421.70 131.63 414.96 134.75 408.02 137.40 C 393.36 123.27 379.35 108.47 364.62 94.41 Z" />
<path fill="#000001" opacity="1.00" d=" M 175.81 82.83 C 207.62 82.50 239.45 82.74 271.26 82.71 C 268.51 90.03 265.39 97.21 261.87 104.19 C 236.22 104.40 210.57 104.22 184.92 104.28 C 181.16 97.46 178.70 90.04 175.81 82.83 Z" />
<path fill="#000001" opacity="1.00" d=" M 290.76 89.39 C 299.94 98.81 309.22 108.13 318.66 117.29 C 313.48 122.40 308.40 127.61 303.15 132.66 C 297.10 126.77 291.31 120.61 285.18 114.80 C 283.90 113.30 281.45 111.64 282.63 109.38 C 285.21 102.67 288.19 96.11 290.76 89.39 Z" />
<path fill="#000001" opacity="1.00" d=" M 128.35 118.23 C 137.79 109.06 147.19 99.85 156.18 90.23 C 158.77 96.17 161.07 102.22 163.58 108.20 C 164.10 109.71 165.08 111.61 163.97 113.10 C 161.00 117.36 156.70 120.41 153.22 124.22 C 150.23 127.50 147.10 130.65 143.85 133.68 C 138.59 128.62 133.48 123.41 128.35 118.23 Z" />
<path fill="#000001" opacity="1.00" d=" M 339.94 118.32 C 344.81 113.30 349.69 108.29 354.76 103.46 C 367.44 117.01 380.93 129.78 393.92 143.03 C 386.82 145.50 379.95 148.56 372.99 151.40 C 365.62 144.65 358.93 137.19 351.72 130.26 C 347.82 126.25 343.62 122.53 339.94 118.32 Z" />
<path fill="#000001" opacity="1.00" d=" M 89.04 157.21 C 98.36 147.87 107.73 138.59 117.03 129.23 C 122.21 134.28 127.40 139.33 132.29 144.65 C 125.04 151.71 118.06 159.04 110.76 166.04 C 103.50 163.16 96.36 159.96 89.04 157.21 Z" />
<path fill="#000001" opacity="1.00" d=" M 314.23 144.02 C 319.32 138.88 324.31 133.62 329.62 128.71 C 338.95 137.98 348.25 147.29 357.50 156.65 C 350.27 159.54 342.98 162.30 335.90 165.57 C 328.47 158.60 321.40 151.25 314.23 144.02 Z" />
<path fill="#000001" opacity="1.00" d=" M 215.42 137.59 C 229.12 135.75 243.17 138.03 255.95 143.14 C 273.69 149.52 288.85 162.37 298.50 178.53 C 309.48 196.23 314.17 217.78 311.38 238.43 C 309.09 255.35 301.07 271.16 290.05 284.06 C 263.76 313.51 216.74 322.03 182.07 302.89 C 165.35 293.46 151.58 278.76 143.83 261.15 C 136.70 244.85 134.01 226.36 137.65 208.84 C 141.18 186.93 154.33 167.06 172.40 154.37 C 184.99 145.20 199.97 139.45 215.42 137.59 M 151.60 191.63 C 145.12 206.15 142.95 222.63 145.52 238.33 C 148.87 257.47 159.07 275.52 174.45 287.55 C 186.48 297.80 201.99 303.74 217.72 304.65 C 203.39 302.01 191.00 290.97 186.89 276.95 C 184.01 267.50 184.75 256.96 189.07 248.06 C 194.21 237.20 204.51 228.93 216.25 226.35 C 222.18 224.89 228.41 225.77 234.31 224.18 C 248.56 220.84 260.36 209.02 263.68 194.77 C 266.74 182.60 263.55 169.08 255.39 159.55 C 248.83 151.74 239.18 146.53 229.02 145.53 C 197.20 143.74 165.08 162.69 151.60 191.63 M 220.40 256.35 C 215.88 258.21 213.37 263.61 214.78 268.28 C 216.24 274.23 224.00 277.47 229.23 274.20 C 233.63 271.90 235.58 266.06 233.54 261.56 C 231.56 256.60 225.24 254.14 220.40 256.35 Z" />
<path fill="#ffffff" opacity="1.00" d=" M 151.60 191.63 C 165.08 162.69 197.20 143.74 229.02 145.53 C 239.18 146.53 248.83 151.74 255.39 159.55 C 263.55 169.08 266.74 182.60 263.68 194.77 C 260.36 209.02 248.56 220.84 234.31 224.18 C 228.41 225.77 222.18 224.89 216.25 226.35 C 204.51 228.93 194.21 237.20 189.07 248.06 C 184.75 256.96 184.01 267.50 186.89 276.95 C 191.00 290.97 203.39 302.01 217.72 304.65 C 201.99 303.74 186.48 297.80 174.45 287.55 C 159.07 275.52 148.87 257.47 145.52 238.33 C 142.95 222.63 145.12 206.15 151.60 191.63 M 220.43 176.32 C 216.02 178.14 213.47 183.32 214.69 187.93 C 215.79 193.18 221.78 196.63 226.90 195.16 C 232.00 193.90 235.42 188.28 234.08 183.18 C 232.89 177.32 225.83 173.83 220.43 176.32 Z" />
<path fill="#000001" opacity="1.00" d=" M 10.61 148.28 C 17.47 151.22 24.52 153.73 31.28 156.90 C 31.28 177.34 31.39 197.78 31.22 218.21 C 24.34 218.37 17.47 218.44 10.60 218.41 C 10.52 195.04 10.49 171.65 10.61 148.28 Z" />
<path fill="#000001" opacity="1.00" d=" M 417.72 156.94 C 424.47 153.79 431.43 151.11 438.43 148.55 C 438.45 171.85 438.47 195.14 438.41 218.44 C 431.52 218.39 424.63 218.44 417.74 218.17 C 417.66 197.76 417.70 177.35 417.72 156.94 Z" />
<path fill="#000001" opacity="1.00" d=" M 45.01 162.55 C 52.00 165.91 59.15 168.95 66.26 172.04 C 66.32 187.49 66.33 202.95 66.25 218.40 C 59.86 218.14 53.51 219.05 47.13 218.98 C 44.33 219.23 44.91 215.86 44.78 214.06 C 44.98 196.89 44.62 179.72 45.01 162.55 Z" />
<path fill="#000001" opacity="1.00" d=" M 382.75 172.95 C 389.30 169.05 396.70 166.91 403.50 163.50 C 402.95 176.35 404.30 189.15 404.02 202.00 C 404.03 230.87 404.18 259.75 404.06 288.62 C 396.99 285.38 389.00 283.78 382.76 278.98 C 382.71 243.64 382.73 208.29 382.75 172.95 Z" />
<path fill="#000001" opacity="1.00" d=" M 220.43 176.32 C 225.83 173.83 232.89 177.32 234.08 183.18 C 235.42 188.28 232.00 193.90 226.90 195.16 C 221.78 196.63 215.79 193.18 214.69 187.93 C 213.47 183.32 216.02 178.14 220.43 176.32 Z" />
<path fill="#000001" opacity="1.00" d=" M 81.13 178.25 C 88.17 181.25 95.28 184.05 102.32 187.04 C 102.49 213.00 102.44 238.96 102.35 264.91 C 95.13 267.71 88.28 271.41 80.90 273.77 C 80.68 244.85 80.91 215.92 80.79 187.00 C 80.76 184.08 80.84 181.16 81.13 178.25 Z" />
<path fill="#000001" opacity="1.00" d=" M 346.78 187.93 C 353.73 184.19 361.19 181.52 368.38 178.29 C 368.42 210.14 368.45 242.00 368.37 273.85 C 361.04 271.28 353.81 268.34 346.87 264.86 C 346.66 239.21 346.85 213.57 346.78 187.93 Z" />
<path fill="#000001" opacity="1.00" d=" M 10.77 233.71 C 17.44 233.95 24.13 233.54 30.79 234.23 C 31.50 247.13 30.91 260.08 31.10 273.00 C 30.95 280.28 31.42 287.60 30.87 294.87 C 29.80 296.50 27.66 296.89 25.99 297.69 C 20.58 299.59 15.51 302.43 9.89 303.75 C 9.75 283.83 9.89 263.92 9.82 244.00 C 9.86 240.56 9.39 236.97 10.77 233.71 Z" />
<path fill="#000001" opacity="1.00" d=" M 46.16 233.92 C 52.83 233.49 59.53 233.81 66.22 233.82 C 66.39 249.24 66.27 264.65 66.29 280.07 C 59.52 283.83 52.26 286.71 44.91 289.16 C 44.77 272.42 44.90 255.68 44.79 238.95 C 44.93 237.21 44.43 235.03 46.16 233.92 Z" />
<path fill="#000001" opacity="1.00" d=" M 417.63 233.97 C 424.51 233.85 431.40 233.71 438.28 233.85 C 438.39 257.18 438.38 280.52 438.29 303.85 C 431.19 301.72 424.55 298.36 417.61 295.81 C 417.55 275.20 417.51 254.58 417.63 233.97 Z" />
<path fill="#ffffff" opacity="1.00" d=" M 220.40 256.35 C 225.24 254.14 231.56 256.60 233.54 261.56 C 235.58 266.06 233.63 271.90 229.23 274.20 C 224.00 277.47 216.24 274.23 214.78 268.28 C 213.37 263.61 215.88 258.21 220.40 256.35 Z" />
<path fill="#000001" opacity="1.00" d=" M 89.44 290.29 C 97.03 287.89 104.19 284.37 111.63 281.56 C 118.64 288.77 125.95 295.68 132.86 302.98 C 127.88 308.27 122.64 313.30 117.51 318.44 C 108.28 308.93 98.85 299.62 89.44 290.29 Z" />
<path fill="#000001" opacity="1.00" d=" M 282.50 338.35 C 300.93 320.25 318.96 301.70 337.44 283.66 C 344.81 285.63 351.61 289.43 358.77 292.08 C 336.23 314.52 313.90 337.19 291.20 359.48 C 287.82 352.64 285.43 345.38 282.50 338.35 Z" />
<path fill="#000001" opacity="1.00" d=" M 53.26 303.98 C 60.54 301.74 67.27 297.72 74.67 296.04 C 85.85 306.67 96.60 317.78 107.50 328.71 C 102.38 333.41 97.56 338.42 92.82 343.50 C 79.43 330.53 66.34 317.26 53.26 303.98 Z" />
<path fill="#000001" opacity="1.00" d=" M 297.31 374.38 C 322.55 348.98 347.84 323.60 373.27 298.38 C 380.32 301.04 387.20 304.10 394.26 306.72 C 364.70 336.11 335.32 365.69 305.69 395.02 C 302.78 388.19 299.73 381.40 297.31 374.38 Z" />
<path fill="#000001" opacity="1.00" d=" M 38.22 310.62 C 39.70 309.83 41.01 310.94 42.02 311.94 C 73.84 343.74 105.53 375.66 137.50 407.31 C 134.73 414.15 131.99 421.00 129.14 427.80 C 116.01 415.29 103.44 402.19 90.52 389.46 C 66.80 365.61 42.85 341.99 19.25 318.03 C 25.66 315.78 31.84 312.92 38.22 310.62 Z" />
<path fill="#000001" opacity="1.00" d=" M 400.44 320.43 C 403.04 317.78 405.43 314.85 408.49 312.70 C 409.92 312.16 411.36 313.29 412.73 313.64 C 418.23 316.08 423.84 318.28 429.42 320.54 C 392.66 357.13 356.11 393.92 319.34 430.50 C 317.15 424.58 314.82 418.71 312.43 412.87 C 312.08 411.76 311.38 410.63 311.65 409.43 C 314.04 406.26 317.14 403.73 319.94 400.95 C 346.76 374.10 373.61 347.28 400.44 320.43 Z" />
<path fill="#000001" opacity="1.00" d=" M 128.67 329.42 C 133.80 324.36 138.86 319.25 143.98 314.19 C 151.21 321.37 158.60 328.41 165.48 335.93 C 162.42 343.10 159.19 350.22 156.79 357.65 C 147.35 348.31 137.85 339.02 128.67 329.42 Z" />
<path fill="#000001" opacity="1.00" d=" M 103.40 354.23 C 108.54 349.51 113.48 344.58 118.23 339.47 C 129.37 350.32 140.23 361.46 151.29 372.39 C 148.78 379.62 145.67 386.63 143.03 393.82 C 129.77 380.67 116.52 367.51 103.40 354.23 Z" />
<path fill="#000001" opacity="1.00" d=" M 185.48 345.44 C 195.57 345.02 205.69 344.58 215.77 345.23 C 215.99 352.58 216.85 360.13 215.29 367.36 C 202.30 367.24 189.30 367.43 176.30 367.28 C 179.33 359.98 182.36 352.69 185.48 345.44 Z" />
<path fill="#000001" opacity="1.00" d=" M 231.63 344.85 C 241.08 344.80 250.53 344.70 259.98 344.87 C 261.49 344.70 261.96 346.54 262.66 347.52 C 265.72 353.89 268.30 360.49 270.65 367.15 C 257.68 367.21 244.71 367.26 231.74 367.13 C 230.63 359.73 231.85 352.29 231.63 344.85 Z" />
<path fill="#000001" opacity="1.00" d=" M 169.92 381.69 C 205.63 381.58 241.35 381.64 277.06 381.66 C 280.59 388.29 283.20 395.36 285.76 402.41 C 244.26 402.43 202.76 402.51 161.25 402.38 C 164.03 395.44 166.78 388.48 169.92 381.69 Z" />
<path fill="#000001" opacity="1.00" d=" M 153.40 418.11 C 154.10 415.87 157.01 416.19 158.87 415.96 C 174.92 415.92 190.96 416.01 207.00 415.93 C 209.81 415.89 212.62 416.06 215.41 416.38 C 214.95 423.35 217.33 430.49 215.25 437.32 C 192.09 437.11 168.92 437.40 145.76 437.17 C 148.06 430.72 150.79 424.43 153.40 418.11 Z" />
<path fill="#000001" opacity="1.00" d=" M 231.64 416.63 C 252.12 416.48 272.59 416.55 293.07 416.59 C 296.02 423.46 298.81 430.40 301.39 437.41 C 278.12 437.48 254.85 437.45 231.58 437.42 C 231.54 430.49 231.47 423.56 231.64 416.63 Z" />
</svg>
